<?xml version="1.0" encoding="UTF-8" standalone="no"?>
<svg width="33pt" height="33pt" viewBox="0 0 512 512" version="1.1" xmlns="http://www.w3.org/2000/svg" style="margin-top: 10px;">
<g id="#ffffffff" style="
">
<path fill="#ffffff" opacity="1.00" d=" M 132.69 36.70 C 138.52 30.55 149.48 30.49 155.28 36.72 C 158.25 39.65 160.14 43.70 159.97 47.92 C 160.07 63.94 159.94 79.96 160.03 95.98 C 186.37 96.04 212.72 95.97 239.06 96.01 C 243.29 95.98 247.70 97.16 250.76 100.22 C 255.32 104.19 256.95 110.86 255.39 116.61 C 253.51 122.48 248.14 127.26 241.89 127.80 C 234.38 128.42 226.82 127.56 219.30 128.24 C 209.01 160.47 193.06 190.79 173.00 218.00 C 170.57 221.37 167.81 224.49 165.51 227.96 C 179.95 243.52 196.65 256.90 214.23 268.75 C 225.94 276.44 238.02 283.57 249.72 291.28 C 257.89 296.95 257.99 310.20 250.27 316.28 C 245.17 320.91 237.14 321.08 231.41 317.53 C 212.74 305.72 193.44 294.76 176.30 280.73 C 164.79 271.87 154.40 261.70 144.00 251.61 C 131.83 263.63 119.32 275.35 105.56 285.55 C 90.43 297.13 73.86 306.61 57.81 316.82 C 53.43 319.74 47.74 320.94 42.68 319.20 C 36.53 316.91 31.70 310.72 32.00 304.00 C 31.77 298.81 34.62 293.78 38.86 290.88 C 56.43 279.50 74.72 269.14 91.29 256.27 C 102.27 247.57 113.09 238.50 122.48 228.06 C 98.98 198.23 80.23 164.50 68.65 128.27 C 60.89 127.46 53.05 128.57 45.30 127.69 C 36.82 126.56 30.60 117.66 32.27 109.30 C 33.31 101.79 40.39 95.90 47.94 96.05 C 74.62 95.91 101.30 96.07 127.98 95.97 C 128.05 80.29 127.97 64.61 128.00 48.93 C 127.97 44.47 129.36 39.82 132.69 36.70 M 102.20 128.08 C 112.52 154.98 126.05 180.87 144.00 203.48 C 161.95 180.87 175.47 154.98 185.80 128.09 C 157.94 127.94 130.07 127.95 102.20 128.08 Z"></path>
<path fill="#ffffff" opacity="1.00" d=" M 337.40 201.36 C 340.89 192.90 352.16 189.19 359.96 194.01 C 364.70 196.48 366.88 201.59 368.78 206.27 C 404.46 287.91 440.22 369.51 475.88 451.15 C 477.55 455.32 480.25 459.32 480.01 464.00 C 480.32 471.21 474.78 477.94 467.86 479.59 C 463.41 480.47 458.51 479.97 454.78 477.23 C 451.18 474.99 449.25 471.09 447.69 467.31 C 438.10 444.93 428.12 422.72 418.65 400.29 C 414.78 399.79 410.88 400.02 407.00 400.00 C 375.67 400.00 344.33 400.00 313.00 400.00 C 303.78 400.19 294.54 399.60 285.35 400.30 C 276.74 420.60 267.65 440.70 258.89 460.94 C 256.94 464.99 255.57 469.34 253.15 473.15 C 249.55 478.60 242.39 480.94 236.13 479.63 C 226.98 477.56 221.43 466.66 225.09 458.03 C 262.54 372.48 299.92 286.90 337.40 201.36 M 351.39 249.34 C 340.07 275.35 328.67 301.33 317.31 327.32 C 311.54 340.88 305.20 354.23 299.81 367.93 C 334.60 368.04 369.40 368.05 404.19 367.93 C 403.75 366.65 403.32 365.38 402.83 364.13 C 386.05 325.88 369.31 287.62 352.61 249.34 C 352.31 249.34 351.69 249.34 351.39 249.34 Z"></path>
</g>
</svg>